<?xml version="1.0" standalone="no"?>
<!DOCTYPE svg PUBLIC "-//W3C//DTD SVG 20010904//EN"
 "http://www.w3.org/TR/2001/REC-SVG-20010904/DTD/svg10.dtd">
<svg version="1.0" xmlns="http://www.w3.org/2000/svg"
 width="696.000000pt" height="696.000000pt" viewBox="0 0 696.000000 696.000000"
 preserveAspectRatio="xMidYMid meet">
<metadata>
Created by potrace 1.14, written by Peter Selinger 2001-2017
</metadata>
<g transform="translate(0.000000,696.000000) scale(0.100000,-0.100000)"
fill="#000000" stroke="none">
<path d="M0 3480 l0 -3480 3480 0 3480 0 0 3480 0 3480 -3480 0 -3480 0 0
-3480z m4221 2928 c36 -79 83 -144 168 -234 192 -203 401 -435 466 -517 22
-28 70 -83 106 -121 59 -64 287 -332 348 -410 14 -17 45 -54 70 -81 25 -28 65
-73 88 -100 132 -158 195 -230 277 -315 51 -52 105 -113 121 -135 16 -22 50
-62 76 -90 59 -62 129 -155 129 -172 0 -59 -729 -783 -1013 -1007 -34 -26
-102 -83 -152 -125 -49 -42 -108 -90 -130 -106 -86 -63 -279 -220 -343 -278
-85 -77 -250 -215 -362 -303 -47 -37 -107 -88 -135 -114 -27 -26 -93 -81 -146
-123 -53 -41 -157 -126 -230 -189 -74 -63 -183 -152 -244 -198 -60 -46 -112
-87 -115 -91 -8 -12 -142 -109 -150 -109 -15 0 -61 43 -74 69 -8 15 -32 45
-53 67 -48 49 -154 170 -184 209 -13 17 -26 32 -29 35 -33 29 -203 239 -237
292 -24 37 -109 144 -189 236 -214 246 -225 260 -289 347 -33 44 -91 116 -130
160 -39 44 -87 100 -106 125 -20 25 -81 92 -136 150 -55 58 -119 128 -141 157
-23 28 -46 54 -52 58 -6 4 -32 39 -58 78 -26 40 -71 97 -101 127 -30 30 -70
72 -89 93 l-35 38 54 50 c49 46 131 115 229 194 234 187 289 238 418 385 31
36 68 74 82 85 14 11 41 35 61 55 210 205 509 486 565 532 73 59 287 239 364
308 96 85 294 248 394 325 43 33 113 87 155 120 42 34 92 72 111 85 19 13 67
52 105 88 39 35 84 76 100 91 51 47 177 144 240 186 33 21 81 58 107 82 26 24
51 43 56 43 5 0 19 -23 33 -52z m1838 -2352 c10 -12 8 -17 -11 -27 -13 -7 -38
-21 -57 -31 -18 -10 -35 -18 -37 -16 -6 7 68 88 81 88 7 0 18 -6 24 -14z
m-127 -98 c-7 -7 -12 -8 -12 -2 0 14 12 26 19 19 2 -3 -1 -11 -7 -17z m39
-120 c17 -17 28 -37 25 -43 -2 -7 -31 -27 -63 -45 -32 -18 -87 -61 -123 -95
-36 -33 -81 -74 -100 -89 -19 -15 -109 -101 -201 -189 -202 -198 -244 -238
-534 -506 -126 -117 -280 -258 -340 -314 -61 -56 -162 -150 -225 -208 -186
-172 -339 -311 -399 -362 -31 -26 -94 -80 -141 -120 -47 -41 -157 -128 -245
-194 -88 -67 -191 -146 -230 -177 -222 -177 -285 -223 -357 -263 -21 -12 -46
-27 -54 -33 -12 -10 -14 -7 -14 18 0 28 -36 85 -67 105 -33 21 -197 199 -257
277 -22 31 -86 111 -141 179 -55 68 -133 167 -173 220 -40 53 -83 107 -96 121
-53 56 -160 187 -181 220 -12 19 -58 73 -102 120 -44 47 -115 130 -158 185
-42 55 -94 118 -114 140 -20 22 -57 65 -81 95 -25 30 -70 84 -100 120 -69 81
-173 207 -223 272 -30 40 -36 53 -26 64 6 8 17 14 23 14 21 0 120 -115 211
-245 27 -38 83 -113 125 -165 41 -52 93 -120 115 -150 40 -57 156 -192 209
-246 63 -63 426 -471 463 -520 21 -29 69 -85 107 -125 38 -41 76 -86 85 -100
18 -29 144 -175 269 -312 55 -60 82 -99 83 -116 3 -58 7 -74 20 -82 26 -16 57
-9 101 24 24 18 81 56 128 86 47 29 94 61 105 71 11 10 45 34 76 52 135 80
418 309 598 483 80 78 180 171 221 206 41 35 91 78 109 94 19 17 58 50 86 75
28 25 105 91 171 146 65 56 144 125 174 155 30 29 69 64 86 78 18 14 94 82
170 151 76 69 153 139 172 155 137 121 545 529 577 576 68 100 179 229 198
229 5 0 22 -14 38 -32z m-269 -135 c-49 -72 -110 -135 -378 -388 -282 -268
-362 -341 -540 -494 -21 -18 -75 -66 -119 -106 -149 -135 -291 -259 -441 -384
-82 -69 -194 -170 -249 -225 -221 -223 -364 -337 -719 -576 -172 -116 -211
-138 -218 -126 -5 9 -15 16 -23 16 -14 0 -161 162 -288 319 -43 53 -99 119
-124 146 -26 28 -90 104 -143 170 -101 125 -347 402 -479 540 -43 44 -88 96
-101 115 -13 19 -42 55 -64 80 -23 25 -61 73 -86 108 -25 35 -71 98 -103 140
-31 42 -79 109 -106 147 -54 77 -198 237 -245 273 -16 12 -39 36 -50 53 l-19
31 24 19 c13 10 29 19 35 19 11 0 56 -45 70 -71 5 -9 35 -47 68 -83 32 -37 71
-84 86 -105 15 -21 40 -47 54 -59 15 -11 57 -57 94 -101 37 -44 112 -131 167
-193 56 -62 114 -131 130 -153 43 -58 211 -261 270 -325 61 -67 225 -283 225
-298 0 -6 3 -12 8 -14 4 -1 34 -34 67 -73 32 -38 70 -81 83 -94 12 -14 55 -63
95 -110 40 -47 89 -104 109 -126 20 -22 54 -64 75 -94 21 -29 52 -70 70 -90
19 -22 33 -50 35 -71 3 -31 6 -35 36 -38 32 -3 74 20 122 68 37 37 274 226
300 240 16 8 48 33 72 56 61 57 196 174 238 206 19 15 47 37 62 50 32 28 48
41 113 93 28 22 66 55 85 73 32 30 91 79 294 242 38 30 104 87 145 126 71 65
226 192 401 327 276 213 571 474 825 733 33 34 64 62 68 63 4 0 -10 -25 -31
-56z m195 -128 l28 -25 -50 -46 c-27 -25 -106 -99 -175 -165 -69 -65 -150
-137 -180 -161 -57 -44 -145 -120 -274 -238 -40 -36 -85 -76 -101 -90 -151
-128 -213 -179 -249 -205 -259 -186 -505 -415 -756 -704 -55 -63 -234 -233
-320 -302 -25 -20 -73 -61 -108 -90 -35 -30 -91 -76 -125 -102 -34 -27 -73
-59 -87 -70 -83 -71 -452 -349 -497 -374 -32 -18 -36 -17 -57 17 -9 17 -25 38
-35 48 -9 9 -50 55 -91 102 -41 47 -98 110 -126 140 -29 30 -72 77 -95 105
-24 27 -73 82 -109 121 -94 103 -173 200 -301 369 -61 83 -140 186 -174 230
-34 44 -89 121 -123 170 -34 50 -74 104 -90 120 -15 17 -45 53 -67 80 -22 28
-57 70 -80 95 -57 65 -81 94 -160 190 -38 47 -72 87 -75 90 -3 3 -17 21 -30
40 -13 19 -49 61 -79 93 -53 56 -54 57 -36 77 27 30 39 25 87 -32 44 -54 93
-111 115 -133 23 -24 176 -213 211 -260 4 -6 54 -64 112 -129 58 -66 130 -152
160 -191 30 -40 88 -111 128 -158 39 -47 72 -90 72 -96 0 -5 30 -43 68 -84
142 -158 182 -207 302 -371 58 -80 74 -98 211 -241 75 -80 114 -137 133 -198
3 -11 14 -21 24 -23 9 -3 27 -21 40 -40 24 -36 67 -47 78 -19 3 8 29 29 57 47
29 18 128 93 220 167 93 74 182 144 198 155 119 87 379 289 399 311 14 15 66
60 115 100 50 40 108 90 130 111 23 22 56 52 75 68 40 33 189 169 290 265 67
63 206 194 355 331 38 36 90 82 115 102 59 46 351 327 564 542 169 170 299
286 323 286 6 0 25 -11 40 -25z m-13 -191 c9 -8 16 -18 16 -20 0 -3 -51 -56
-112 -119 -62 -63 -122 -124 -133 -136 -110 -116 -553 -532 -719 -674 -208
-178 -296 -256 -389 -345 -38 -36 -84 -75 -104 -87 -20 -12 -61 -46 -92 -77
-31 -30 -84 -76 -118 -103 -123 -95 -261 -223 -388 -358 -175 -185 -287 -280
-500 -426 -99 -67 -215 -150 -257 -185 -42 -35 -88 -66 -102 -70 -14 -3 -31
-12 -37 -20 -10 -13 -16 -11 -41 12 -15 15 -28 33 -28 40 0 7 -6 19 -13 26
-26 26 -144 165 -207 243 -36 44 -92 109 -126 145 -58 61 -94 102 -252 283
-34 40 -100 122 -146 183 -46 61 -112 142 -146 180 -34 37 -76 88 -93 113 -43
65 -171 231 -242 315 -33 39 -76 91 -95 116 -19 25 -42 51 -51 58 -10 7 -35
40 -55 75 -21 34 -56 85 -79 112 -23 28 -54 71 -69 97 l-27 47 22 42 22 43 24
-29 c27 -32 156 -184 332 -389 60 -70 129 -156 152 -190 92 -135 134 -193 168
-236 51 -63 76 -98 115 -155 18 -27 50 -68 69 -90 20 -22 37 -43 37 -47 0 -8
104 -132 199 -238 42 -46 92 -103 112 -125 20 -22 85 -92 144 -155 100 -107
204 -234 232 -284 25 -43 69 -85 93 -88 20 -2 28 5 45 37 15 27 57 68 136 130
64 50 175 137 248 195 73 58 158 124 189 148 32 24 75 60 97 80 22 21 78 69
125 107 146 119 307 276 487 475 67 74 149 162 184 195 34 33 76 74 93 91 53
53 157 136 266 214 58 40 128 94 155 119 28 25 68 60 89 76 70 53 103 82 203
175 90 84 199 179 235 206 45 34 190 166 223 203 43 49 77 81 86 81 4 0 15 -7
23 -16z m-26 -186 c20 -20 14 -33 -29 -64 -23 -16 -58 -45 -78 -64 -20 -19
-55 -48 -76 -65 -22 -16 -61 -50 -86 -75 -25 -25 -142 -137 -260 -250 -197
-188 -321 -311 -468 -463 -31 -32 -94 -93 -141 -135 -46 -43 -132 -122 -190
-177 -123 -117 -198 -185 -300 -275 -40 -36 -88 -78 -104 -93 -17 -16 -65 -56
-106 -90 -41 -34 -101 -87 -135 -118 -33 -30 -96 -84 -140 -120 -44 -35 -87
-71 -95 -79 -9 -8 -108 -89 -220 -180 -185 -150 -256 -211 -358 -307 -18 -18
-36 -33 -39 -33 -3 0 -21 -16 -40 -35 -19 -19 -38 -35 -42 -35 -20 0 -163 157
-255 280 -43 58 -100 128 -126 155 -26 28 -63 71 -81 96 -66 89 -227 285 -291
354 -63 68 -196 223 -248 289 -14 17 -56 72 -95 121 -68 88 -227 285 -313 388
-24 29 -60 77 -80 107 -51 77 -90 127 -139 180 -24 25 -43 47 -43 50 0 12 17
28 37 34 17 6 26 -1 50 -35 15 -23 51 -68 80 -98 29 -31 74 -84 100 -118 26
-34 83 -104 125 -156 43 -52 78 -98 78 -102 0 -3 15 -25 33 -48 86 -110 122
-155 151 -187 17 -19 61 -73 96 -120 36 -47 68 -87 71 -90 3 -3 12 -15 21 -28
8 -12 36 -44 60 -70 25 -26 53 -62 62 -80 9 -18 21 -32 26 -32 8 0 64 -61 284
-308 99 -111 215 -258 228 -290 7 -15 27 -44 45 -66 17 -21 33 -48 35 -60 5
-36 45 -47 113 -31 34 7 65 21 72 32 39 55 139 135 363 288 175 119 255 190
490 431 74 76 153 154 175 172 22 19 67 58 100 87 117 103 280 240 326 275 26
19 101 85 167 145 130 120 289 260 337 297 17 13 75 66 130 119 55 52 134 126
175 164 175 161 458 440 502 495 26 34 29 35 46 18z"/>
<path d="M3673 5535 c-35 -15 -158 -168 -225 -280 -29 -49 -42 -81 -42 -110
-1 -37 2 -41 39 -60 49 -24 157 -25 203 -1 48 25 74 65 69 106 -2 19 -7 43
-11 53 -7 14 -3 17 19 17 40 0 90 35 106 73 32 75 -2 176 -67 203 -41 17 -50
17 -91 -1z m85 -75 c65 -61 -22 -163 -122 -145 -65 13 -63 27 16 99 40 36 75
66 78 66 4 0 16 -9 28 -20z m-153 -205 c40 -20 63 -59 49 -83 -24 -37 -158
-58 -171 -26 -8 20 25 92 51 110 26 18 31 18 71 -1z"/>
<path d="M3699 5053 c-63 -32 -99 -80 -99 -131 0 -49 68 -116 133 -133 26 -6
47 -13 47 -15 0 -2 -7 -19 -16 -38 -28 -58 6 -92 44 -44 9 11 50 57 89 101 82
89 102 136 83 191 -31 94 -165 127 -281 69z m179 -53 c54 -25 54 -44 -2 -99
-57 -56 -112 -65 -166 -29 -64 43 -43 101 47 133 51 19 70 18 121 -5z"/>
<path d="M4013 4799 c-77 -18 -142 -109 -143 -198 0 -37 5 -49 35 -77 52 -49
120 -57 170 -20 27 20 12 33 -55 51 -91 24 -115 68 -62 117 38 36 93 68 118
68 21 0 64 -38 64 -56 0 -6 5 -15 12 -22 18 -18 38 5 38 45 0 39 -45 93 -77
93 -10 0 -27 2 -38 4 -11 2 -39 0 -62 -5z"/>
<path d="M4368 4708 c-44 -44 -186 -225 -227 -287 -49 -77 -58 -101 -40 -112
26 -16 37 -9 69 41 18 28 34 50 35 50 2 0 10 -22 18 -50 20 -69 64 -140 86
-140 40 0 40 22 0 125 -21 55 -39 104 -39 108 0 5 50 7 110 6 119 -3 139 4
115 38 -16 23 -88 43 -156 43 -37 0 -39 1 -29 21 7 11 39 47 72 80 62 61 72
91 31 97 -14 2 -32 -6 -45 -20z"/>
<path d="M3104 4556 c-116 -106 -229 -268 -234 -336 -4 -44 0 -60 13 -60 19 0
71 58 95 104 l19 40 17 -27 c10 -14 30 -69 45 -121 31 -107 54 -149 79 -144
28 6 18 83 -25 212 -45 130 -44 131 38 116 116 -22 178 -4 193 56 14 54 -102
224 -152 224 -10 0 -50 -29 -88 -64z m126 -56 c32 -35 51 -82 40 -99 -20 -33
-200 -12 -200 24 0 17 99 105 118 105 8 0 27 -14 42 -30z"/>
<path d="M4495 4291 c-47 -55 -90 -103 -96 -106 -25 -16 -89 -109 -89 -130 0
-50 29 -34 137 79 183 191 224 256 159 256 -19 0 -45 -23 -111 -99z"/>
<path d="M3475 4262 c-6 -4 -88 -87 -184 -184 -142 -145 -172 -180 -162 -192
17 -21 46 -9 104 43 85 76 77 73 135 51 70 -27 170 -27 222 0 83 42 93 105 30
193 -53 74 -114 112 -145 89z m69 -103 c39 -30 59 -74 46 -99 -13 -24 -81 -43
-123 -34 -38 8 -87 32 -86 42 0 8 121 112 130 112 4 0 18 -9 33 -21z"/>
<path d="M4492 4103 c-18 -9 -45 -32 -60 -51 -72 -94 11 -202 156 -202 89 0
153 51 168 133 6 35 3 41 -33 75 -63 60 -162 79 -231 45z m171 -82 c32 -13 37
-49 8 -75 -48 -43 -153 -40 -186 7 -20 29 -19 39 7 66 19 21 27 23 82 18 34
-3 74 -10 89 -16z"/>
<path d="M3597 3899 c-65 -10 -146 -58 -182 -108 -39 -56 -47 -148 -17 -208
41 -79 128 -136 209 -137 44 -1 56 3 82 28 47 46 43 84 -17 146 -38 40 -55 50
-80 50 -63 0 -54 -50 14 -86 68 -36 46 -89 -29 -70 -36 9 -93 57 -117 99 -63
111 57 235 217 225 90 -6 122 -32 143 -115 8 -32 16 -43 30 -43 43 0 41 66 -4
135 -42 64 -146 99 -249 84z"/>
<path d="M4695 3859 c-45 -40 -49 -91 -9 -139 27 -32 92 -70 119 -70 47 0 -22
-127 -118 -218 -60 -56 -91 -72 -138 -72 -43 0 -68 15 -121 73 -37 41 -49 49
-59 40 -17 -17 33 -97 88 -139 101 -77 199 -46 319 99 69 85 204 306 204 336
0 56 -111 121 -205 121 -35 0 -51 -6 -80 -31z m165 -49 c64 -32 50 -77 -27
-87 -53 -7 -113 19 -113 48 0 57 68 76 140 39z"/>
<path d="M3824 3531 c-29 -13 -74 -69 -74 -92 0 -30 27 -76 72 -125 l40 -43
-25 -12 c-18 -8 -41 -8 -84 -1 -64 11 -73 9 -73 -17 0 -29 46 -46 122 -45 53
1 76 6 96 21 46 34 40 63 -23 131 -64 69 -69 98 -21 121 27 12 34 11 83 -13
29 -14 63 -26 74 -26 17 0 20 5 17 37 -2 31 -9 41 -33 52 -35 18 -141 25 -171
12z"/>
</g>
</svg>
